<svg width="24" height="24" viewBox="0 0 24 24" fill="none" xmlns="http://www.w3.org/2000/svg">
<path d="M3.29 19.29L6.69 15.9C5.59301 14.5025 4.99779 12.7767 5 11C5 9.41775 5.46919 7.87103 6.34824 6.55544C7.22729 5.23985 8.47672 4.21447 9.93853 3.60897C11.4003 3.00347 13.0089 2.84504 14.5607 3.15372C16.1126 3.4624 17.538 4.22433 18.6569 5.34315C19.7757 6.46197 20.5376 7.88743 20.8463 9.43928C21.155 10.9911 20.9965 12.5997 20.391 14.0615C19.7855 15.5233 18.7602 16.7727 17.4446 17.6518C16.129 18.5308 14.5822 19 13 19C11.2233 19.0022 9.49754 18.407 8.1 17.31L4.71 20.71C4.61703 20.8037 4.50643 20.8781 4.38457 20.9289C4.26271 20.9797 4.13201 21.0058 4 21.0058C3.86798 21.0058 3.73728 20.9797 3.61542 20.9289C3.49356 20.8781 3.38296 20.8037 3.29 20.71C3.19627 20.617 3.12187 20.5064 3.0711 20.3846C3.02034 20.2627 2.9942 20.132 2.9942 20C2.9942 19.868 3.02034 19.7373 3.0711 19.6154C3.12187 19.4936 3.19627 19.383 3.29 19.29ZM19 11C19 9.81332 18.6481 8.65328 17.9888 7.66658C17.3295 6.67989 16.3925 5.91085 15.2961 5.45673C14.1997 5.0026 12.9933 4.88378 11.8295 5.11529C10.6656 5.3468 9.59647 5.91825 8.75736 6.75736C7.91824 7.59648 7.3468 8.66558 7.11528 9.82946C6.88377 10.9933 7.00259 12.1997 7.45672 13.2961C7.91084 14.3925 8.67988 15.3295 9.66657 15.9888C10.6533 16.6481 11.8133 17 13 17C14.5913 17 16.1174 16.3679 17.2426 15.2426C18.3679 14.1174 19 12.5913 19 11Z" fill="#4169CC"/>
</svg>
