<svg width="16" height="16" viewBox="0 0 16 16" fill="none" xmlns="http://www.w3.org/2000/svg">
<path d="M7.99999 8.00001C9.84094 8.00001 11.3333 6.50763 11.3333 4.66668C11.3333 2.82573 9.84094 1.33334 7.99999 1.33334C6.15904 1.33334 4.66666 2.82573 4.66666 4.66668C4.66666 6.50763 6.15904 8.00001 7.99999 8.00001Z" stroke="white" stroke-width="2"/>
<path d="M11.3333 9.33334H11.568C12.0554 9.33348 12.5259 9.51159 12.8913 9.8342C13.2566 10.1568 13.4916 10.6017 13.552 11.0853L13.8127 13.168C13.8361 13.3556 13.8194 13.5461 13.7636 13.7267C13.7078 13.9074 13.6142 14.0741 13.4891 14.2159C13.3639 14.3576 13.2101 14.4711 13.0377 14.5488C12.8653 14.6265 12.6784 14.6667 12.4893 14.6667H3.51066C3.32158 14.6667 3.13465 14.6265 2.96229 14.5488C2.78992 14.4711 2.63606 14.3576 2.51091 14.2159C2.38576 14.0741 2.29218 13.9074 2.23639 13.7267C2.1806 13.5461 2.16388 13.3556 2.18732 13.168L2.44732 11.0853C2.50779 10.6015 2.74293 10.1564 3.10854 9.83376C3.47416 9.51112 3.94504 9.33316 4.43266 9.33334H4.66666" stroke="white" stroke-width="2" stroke-linecap="round" stroke-linejoin="round"/>
</svg>
